HIERARCHY
ROOT Hips
{
    OFFSET 0.000000 0.000000 0.000000
    CHANNELS 6 Xposition Yposition Zposition Zrotation Xrotation Yrotation
    JOINT Spine
    {
        OFFSET -0.000000 8.249566 0.000000
        CHANNELS 3 Zrotation Xrotation Yrotation
        JOINT Spine1
        {
            OFFSET -0.000000 22.751984 0.000000
            CHANNELS 3 Zrotation Xrotation Yrotation
            JOINT Neck
            {
                OFFSET -0.000000 22.658548 2.059868
                CHANNELS 3 Zrotation Xrotation Yrotation
                JOINT Head
                {
                    OFFSET -0.000000 14.084625 -2.012089
                    CHANNELS 3 Zrotation Xrotation Yrotation
                    End Site
                    {
                        OFFSET -0.000000 25.151115 0.000000
                    }
                }
            }
            JOINT LeftShoulder
            {
                OFFSET 4.014710 20.418900 0.142539
                CHANNELS 3 Zrotation Xrotation Yrotation
                JOINT LeftArm
                {
                    OFFSET 12.409162 0.000000 0.000000
                    CHANNELS 3 Zrotation Xrotation Yrotation
                    JOINT LeftForeArm
                    {
                        OFFSET 32.111938 0.000000 0.000000
                        CHANNELS 3 Zrotation Xrotation Yrotation
                        JOINT LeftHand
                        {
                            OFFSET 25.320286 0.000000 0.000000
                            CHANNELS 3 Zrotation Xrotation Yrotation
                            End Site
                            {
                                OFFSET 15.090670 0.000000 0.000000
                            }
                        }
                    }
                }
            }
            JOINT RightShoulder
            {
                OFFSET -4.019371 20.418900 0.142539
                CHANNELS 3 Zrotation Xrotation Yrotation
                JOINT RightArm
                {
                    OFFSET -12.409162 0.000000 0.000000
                    CHANNELS 3 Zrotation Xrotation Yrotation
                    JOINT RightForeArm
                    {
                        OFFSET -32.111938 0.000000 0.000000
                        CHANNELS 3 Zrotation Xrotation Yrotation
                        JOINT RightHand
                        {
                            OFFSET -25.320286 0.000000 0.000000
                            CHANNELS 3 Zrotation Xrotation Yrotation
                            End Site
                            {
                                OFFSET -15.090670 0.000000 0.000000
                            }
                        }
                    }
                }
            }
        }
    }
    JOINT LeftUpLeg
    {
        OFFSET 10.060447 0.000000 0.000000
        CHANNELS 3 Zrotation Xrotation Yrotation
        JOINT LeftLeg
        {
            OFFSET -0.000000 -49.683781 0.000000
            CHANNELS 3 Zrotation Xrotation Yrotation
            JOINT LeftFoot
            {
                OFFSET -0.000000 -37.035061 0.000000
                CHANNELS 3 Zrotation Xrotation Yrotation
                JOINT LeftToeBase
                {
                    OFFSET -0.000000 -6.539289 15.090670
                    CHANNELS 3 Zrotation Xrotation Yrotation
                    End Site
                    {
                        OFFSET -0.000000 0.000000 4.024179
                    }
                }
            }
        }
    }
    JOINT RightUpLeg
    {
        OFFSET -10.060447 0.000000 0.000000
        CHANNELS 3 Zrotation Xrotation Yrotation
        JOINT RightLeg
        {
            OFFSET -0.000000 -49.683781 0.000000
            CHANNELS 3 Zrotation Xrotation Yrotation
            JOINT RightFoot
            {
                OFFSET -0.000000 -37.035061 0.000000
                CHANNELS 3 Zrotation Xrotation Yrotation
                JOINT RightToeBase
                {
                    OFFSET -0.000000 -6.539289 15.090670
                    CHANNELS 3 Zrotation Xrotation Yrotation
                    End Site
                    {
                        OFFSET -0.000000 0.000000 4.024179
                    }
                }
            }
        }
    }
}
MOTION
Frames:    4
Frame Time:    0.008333
-12.675941    97.567764    192.307739    -0.139345    -0.740335    179.532700    0.698351    5.070259    0.237784    0.445643    -1.634624    0.275260    2.204384    -7.302468    2.145262    -1.099911    -0.828577    1.597988    21.804083    -4.848771    -0.642184    -23.201349    -0.767067    3.883260    0.261977    1.375192    2.360003    -2.374952    1.538889    -8.146867    -20.445780    -1.293967    -8.192660    22.434536    0.891301    9.718264    2.071722    3.337729    -3.391428    -5.744321    3.554442    -3.103957    2.874561    -2.868341    0.274225    -1.891520    6.172606    0.764829    0.061143    -4.728499    0.366032    0.000000    0.000000    0.000000    -4.125885    -4.485373    -2.943406    1.211056    11.494113    0.829433    -1.234411    -6.749671    -7.768316    0.000000    0.000000    0.000000    
-12.671820    97.569107    192.311676    -0.133464    -0.746271    179.522659    0.713632    5.068593    0.237484    0.416963    -1.618763    0.275062    2.218283    -7.334300    2.143528    -1.108665    -0.766416    1.591833    21.833521    -4.868160    -0.633056    -23.241953    -0.788319    3.889920    0.235576    1.448751    2.366414    -2.275342    1.608848    -8.292454    -20.442842    -1.296413    -8.206203    22.442495    0.884129    9.710111    2.027059    3.196388    -3.321923    -5.782178    3.408601    -3.044457    2.882707    -2.865908    0.269113    -1.897467    6.152548    0.755964    0.052141    -4.726449    0.401520    0.000000    0.000000    0.000000    -4.118895    -4.488286    -2.945855    1.215562    11.487656    0.852309    -1.251301    -6.755962    -7.788834    0.000000    0.000000    0.000000    
-12.667590    97.571632    192.316345    -0.126212    -0.753473    179.503220    0.716473    5.065120    0.235922    0.426122    -1.612583    0.273775    2.190134    -7.328259    2.146718    -1.096690    -0.750335    1.603224    21.806231    -4.876009    -0.636749    -23.251621    -0.827483    3.917677    0.220520    1.474317    2.372757    -2.240322    1.632305    -8.299466    -20.507427    -1.346519    -8.206370    22.518223    0.849000    9.702827    2.010549    3.142075    -3.307204    -5.893041    3.347745    -2.873757    2.896258    -2.861195    0.268256    -1.905344    6.127410    0.737281    0.049316    -4.712447    0.440276    0.000000    0.000000    0.000000    -4.104020    -4.493368    -2.945789    1.197982    11.461527    0.850280    -1.091043    -6.836478    -7.905261    0.000000    0.000000    0.000000    
-12.665936    97.574112    192.324539    -0.133411    -0.775345    179.489471    0.698812    5.045310    0.238826    0.465820    -1.609727    0.276146    2.131209    -7.314196    2.121297    -1.099723    -0.729374    1.589400    21.729557    -4.889370    -0.649397    -23.254694    -0.835665    3.921570    0.251852    1.400207    2.433676    -2.281732    1.563689    -8.463879    -20.527388    -1.338990    -8.218120    22.514975    0.777450    9.728970    2.027194    3.119932    -3.298356    -5.981550    3.328729    -2.885235    2.886175    -2.874438    0.274184    -1.893807    6.099755    0.754911    0.037740    -4.685423    0.419059    0.000000    0.000000    0.000000    -4.109790    -4.515884    -2.939737    1.207060    11.447282    0.855636    -1.276191    -6.702767    -7.754527    0.000000    0.000000    0.000000    
